 http://www.imdb.com/title/tt0102685/

Source: Point.Break.1991.720p.Bluray.DTS.x264-RuDE

Subs: Brazilian, Bulgarian, Czech, Danish, Dutch, English, French, German, Greek, Hungarian, Polish, Portuguese, Servian, Slovenian, Spanish, Swedish and Vietnamese.

Sample and Screens included.

General
Complete name                    : Point Break-720p MP4 AAC x264 BRRip 1991-CC.mp4
Format                           : MPEG-4
Format profile                   : Base Media
Codec ID                         : isom
File size                        : 2.30 GiB
Duration                         : 2h 2mn
Overall bit rate                 : 2 697 Kbps
Encoded date                     : UTC 2012-06-15 09:17:40

Video
ID                               : 1
Format                           : AVC
Format/Info                      : Advanced Video Codec
Format profile                   : High@L3.1
Format settings, CABAC           : Yes
Format settings, ReFrames        : 5 frames
Codec ID                         : avc1
Codec ID/Info                    : Advanced Video Coding
Duration                         : 2h 2mn
Bit rate mode                    : Variable
Bit rate                         : 2 308 Kbps
Nominal bit rate                 : 2 337 Kbps
Maximum bit rate                 : 21.2 Mbps
Width                            : 1 280 pixels
Height                           : 544 pixels
Display aspect ratio             : 2.35:1
Frame rate mode                  : Variable
Frame rate                       : 23.976 fps
Minimum frame rate               : 23.810 fps
Maximum frame rate               : 24.390 fps
Resolution                       : 24 bits
Colorimetry                      : 4:2:0
Scan type                        : Progressive
Bits/(Pixel*Frame)               : 0.138
Stream size                      : 1.97 GiB (86%)
Writing library                  : x264 core 112

Audio
ID                               : 2
Format                           : AAC
Format/Info                      : Advanced Audio Codec
Format version                   : Version 4
Format profile                   : LC
Format settings, SBR             : No
Codec ID                         : 40
Duration                         : 2h 2mn
Bit rate mode                    : Variable
Bit rate                         : 384 Kbps
Maximum bit rate                 : 670 Kbps
Channel(s)                       : 6 channels
Channel positions                : Front: L C R, Rear: L R, LFE
Sampling rate                    : 48.0 KHz
Resolution                       : 16 bits
Stream size                      : 335 MiB (14%)

Enjoy...

Requested by alorati.